DataRate=2000.000000
DataType=double
version=3
OpenSimVersion=4.3-2021-08-27-4bc7ad9
endheader
time	f1_1	f1_2	f1_3	p1_1	p1_2	p1_3	m1_1	m1_2	m1_3	f2_1	f2_2	f2_3	p2_1	p2_2	p2_3	m2_1	m2_2	m2_3	f3_1	f3_2	f3_3	p3_1	p3_2	p3_3	m3_1	m3_2	m3_3	f4_1	f4_2	f4_3	p4_1	p4_2	p4_3	m4_1	m4_2	m4_3
0	-0	0	0	-300	2252	0	0	0	0	-5.41718578338623	-36.638427734375	375.783447265625	-300	1351	0	-95641.515625	29323.392578125	-2914.90380859375	1.072385934507798	40.28251652636771	394.0861206054688	-300	450.0000000000007	0	111059.9907621046	32609.24704208636	-150.490966796875	-0	0	0	305	450.0000000000007	0	0	0	0
0.0005	-0	0	0	-300	2252	0	0	0	0	-5.441841125488281	-36.48840713500977	376.5501098632812	-300	1351	0	-95802.328125	29210.328125	-2891.7236328125	0.7827220797279911	40.36301425540532	393.4630432128906	-300	450.0000000000007	0	110814.1704532104	32526.75679696622	-3.092527627944946	-0	0	0	305	450.0000000000007	0	0	0	0
0.001	-0	0	0	-300	2252	0	0	0	0	-5.119138240814209	-36.75209808349609	375.5654296875	-300	1351	0	-95910.71875	29277.412109375	-2973.380126953125	0.9914465865382583	40.17858891052505	393.8738098144531	-300	450.0000000000007	0	111025.5923249554	32601.22360308276	68.82833099365234	-0	0	0	305	450.0000000000007	0	0	0	0
0.0015	-0	0	0	-300	2252	0	0	0	0	-4.99578857421875	-36.38409805297852	375.3326416015625	-300	1351	0	-95693.96875	29217.75390625	-2950.01220703125	0.8444942509308074	40.28248218413086	393.4630737304688	-300	450.0000000000007	0	111033.6704455065	32703.00094718586	48.31100082397461	-0	0	0	305	450.0000000000007	0	0	0	0
0.002	-0	0	0	-300	2252	0	0	0	0	-4.99578857421875	-36.38039398193359	376.1968078613281	-300	1351	0	-95765.7578125	29440.03125	-2862.28759765625	0.833176948129237	40.05563358134123	392.6586608886719	-300	450.0000000000007	0	111236.0688821975	32721.50876853298	-22.6964225769043	-0	0	0	305	450.0000000000007	0	0	0	0
0.0025	-0	0	0	-300	2252	0	0	0	0	-4.99578857421875	-36.64776229858398	376.2343444824219	-300	1351	0	-96130.046875	29367.337890625	-2732.481201171875	1.134061967622584	40.1058083076281	393.4183959960938	-300	450.0000000000007	0	110992.2173292818	32502.24703912389	-111.8825225830078	-0	0	0	305	450.0000000000007	0	0	0	0
0.003	-0	0	0	-300	2252	0	0	0	0	-5.124841690063477	-36.27044677734375	377.9248352050781	-300	1351	0	-96073.984375	29436.123046875	-2776.3671875	0.8715589388717341	40.12490848536272	392.8711547851562	-300	450.0000000000007	0	110694.4829628151	32307.02632298451	-76.82084655761719	-0	0	0	305	450.0000000000007	0	0	0	0
0.0035	-0	0	0	-300	2252	0	0	0	0	-5.432286739349365	-36.29119873046875	378.0980224609375	-300	1351	0	-95970.5	29715.7109375	-2808.82568359375	0.8331334891169369	40.22095111673973	392.9322814941406	-300	450.0000000000007	0	110685.5376454658	32417.9657757185	12.21574211120605	-0	0	0	305	450.0000000000007	0	0	0	0
0.004	-0	0	0	-300	2252	0	0	0	0	-5.466539859771729	-36.62302017211914	377.9025268554688	-300	1351	0	-96019.9765625	29543.92578125	-2724.52099609375	0.7636716642582244	40.27468875408432	393.3876342773438	-300	450.0000000000007	0	110938.5610867848	32330.5985992785	-22.5622673034668	-0	0	0	305	450.0000000000007	0	0	0	0
0.004500000000000001	-0	0	0	-300	2252	0	0	0	0	-5.183822631835938	-36.52838897705078	377.3917846679688	-300	1351	0	-95984.2109375	29600.26171875	-2818.85009765625	0.894814456658358	40.33613208867417	392.7652282714844	-300	450.0000000000007	0	110766.4204616526	32333.622029254	-70.35432434082031	-0	0	0	305	450.0000000000007	0	0	0	0
0.005	-0	0	0	-300	2252	0	0	0	0	-5.34298849105835	-36.58321762084961	378.9835815429688	-300	1351	0	-95822.8984375	29545.8203125	-2656.11279296875	0.4821950244767278	40.11728670320636	393.6607055664062	-300	450.0000000000007	0	110772.1548305799	32472.54976387966	-79.14527130126953	-0	0	0	305	450.0000000000007	0	0	0	0
0.0055	-0	0	0	-300	2252	0	0	0	0	-5.054900646209717	-36.69702911376953	377.8812561035156	-300	1351	0	-95870.71875	29097.9375	-2765.37548828125	0.574607996849086	40.25542833932594	393.70654296875	-300	450.0000000000007	0	110794.1938917554	32502.85054609301	23.97599792480469	-0	0	0	305	450.0000000000007	0	0	0	0
0.006	-0	0	0	-300	2252	0	0	0	0	-5.164509296417236	-36.72172546386719	376.6856079101562	-300	1351	0	-96006.71875	29171.265625	-2732.668212890625	0.7096845096041264	40.48585131886313	393.2510681152344	-300	450.0000000000007	0	110924.2407688451	32455.04391115254	89.73471832275391	-0	0	0	305	450.0000000000007	0	0	0	0
0.006500000000000001	-0	0	0	-300	2252	0	0	0	0	-4.876566886901855	-36.59289169311523	376.7450866699219	-300	1351	0	-96231.53125	29406.125	-2691.963623046875	0.8947275033756543	40.10978321171724	392.9019775390625	-300	450.0000000000007	0	111009.4204593311	32386.73141487586	119.1692123413086	-0	0	0	305	450.0000000000007	0	0	0	0
0.007	-0	0	0	-300	2252	0	0	0	0	-5.11496639251709	-36.67228698730469	377.3534851074219	-300	1351	0	-96018.71875	29442.333984375	-2776.614990234375	0.7291219585139622	40.10561374036707	392.3101196289062	-300	450.0000000000007	0	110799.3970221992	32378.31148382045	87.07822418212891	-0	0	0	305	450.0000000000007	0	0	0	0
0.0075	-0	0	0	-300	2252	0	0	0	0	-5.005576610565186	-36.91493606567383	377.0389709472656	-300	1351	0	-95823.1875	29675.068359375	-2745.8369140625	0.9293061783364216	40.24776462802365	392.5827026367188	-300	450.0000000000007	0	110706.8657744534	32326.74116727578	48.2693977355957	-0	0	0	305	450.0000000000007	0	0	0	0
0.008	-0	0	0	-300	2252	0	0	0	0	-4.906578063964844	-36.66713714599609	378.6291809082031	-300	1351	0	-95771.6640625	29510.783203125	-2763.5263671875	0.6329129099485881	40.09052660847609	393.5236206054688	-300	450.0000000000007	0	110698.8267137899	32284.72554192438	60.01516723632812	-0	0	0	305	450.0000000000007	0	0	0	0
0.008500000000000001	-0	0	0	-300	2252	0	0	0	0	-4.971024513244629	-37.05857086181641	379.5704040527344	-300	1351	0	-95892.2578125	29585.87890625	-2780.091064453125	0.5668561824344535	40.07110598180936	393.843017578125	-300	450.0000000000007	0	110789.748585875	32351.4110927737	48.48714828491211	-0	0	0	305	450.0000000000007	0	0	0	0
0.009000000000000001	-0	0	0	-300	2252	0	0	0	0	-4.738032341003418	-36.87022018432617	378.6480102539062	-300	1351	0	-95723.59375	29680.869140625	-2674.26904296875	0.6209737416435529	40.09804537626476	394.0856628417969	-300	450.0000000000007	0	110694.0532666564	32505.11616671573	183.7012329101562	-0	0	0	305	450.0000000000007	0	0	0	0
0.0095	-0	0	0	-300	2252	0	0	0	0	-4.83227014541626	-36.72172546386719	378.2557373046875	-300	1351	0	-96175.7109375	29830.6171875	-2696.94189453125	0.3743873673029666	39.91391755786894	394.1921997070312	-300	450.0000000000007	0	110531.7563975692	32369.84662837151	102.8859558105469	-0	0	0	305	450.0000000000007	0	0	0	0
0.01	-0	0	0	-300	2252	0	0	0	0	-4.842140674591064	-37.17238616943359	378.2557373046875	-300	1351	0	-96261.921875	29965.271484375	-2679.424560546875	0.5127039967880699	39.95582964277237	392.7364807128906	-300	450.0000000000007	0	110768.0142107325	32354.67281057366	80.674072265625	-0	0	0	305	450.0000000000007	0	0	0	0
0.0105	-0	0	0	-300	2252	0	0	0	0	-4.94622802734375	-37.02377700805664	378.0006408691406	-300	1351	0	-96148.2734375	29919.232421875	-2641.97119140625	0.6209737455040496	40.00972750517101	393.5528259277344	-300	450.0000000000007	0	110708.9595290184	32222.3056204923	160.5445098876953	-0	0	0	305	450.0000000000007	0	0	0	0
0.011	-0	0	0	-300	2252	0	0	0	0	-4.802519798278809	-36.64252471923828	378.1575927734375	-300	1351	0	-96204.6640625	29835.482421875	-2591.26904296875	0.6826026289848668	39.88700869682974	393.7070617675781	-300	450.0000000000007	0	110438.2329715396	32107.43451490847	146.4138793945312	-0	0	0	305	450.0000000000007	0	0	0	0
0.0115	-0	0	0	-300	2252	0	0	0	0	-4.728157043457031	-36.67218017578125	379.7858581542969	-300	1351	0	-96244.296875	29643.4296875	-2659.48095703125	0.8329277481557714	39.89443210427956	393.2513427734375	-300	450.0000000000007	0	110449.4126566414	32162.29779664715	86.98561859130859	-0	0	0	305	450.0000000000007	0	0	0	0
0.012	-0	0	0	-300	2252	0	0	0	0	-4.599340438842773	-36.78607940673828	378.8448791503906	-300	1351	0	-96055.984375	29826.2109375	-2670.938232421875	0.5790343715801509	39.9214020028495	392.9022216796875	-300	450.0000000000007	0	110536.842341971	32211.95014421882	48.45306015014648	-0	0	0	305	450.0000000000007	0	0	0	0
0.0125	-0	0	0	-300	2252	0	0	0	0	-4.742938995361328	-37.00388717651367	378.2557373046875	-300	1351	0	-96188.3125	30145.76953125	-2515.255615234375	0.5051593073241344	39.79872896495235	392.0681457519531	-300	450.0000000000007	0	110503.7642097198	32377.83881464793	142.4177856445312	-0	0	0	305	450.0000000000007	0	0	0	0
0.013	-0	0	0	-300	2252	0	0	0	0	-4.366611480712891	-37.01391220092773	378.5106506347656	-300	1351	0	-96117.9609375	29865.451171875	-2437.136962890625	0.7786624290356086	39.86741641587239	391.7481079101562	-300	450.0000000000007	0	110624.7095285982	32231.91889805962	146.3599853515625	-0	0	0	305	450.0000000000007	0	0	0	0
0.0135	-0	0	0	-300	2252	0	0	0	0	-4.450439929962158	-36.98912048339844	379.3736267089844	-300	1351	0	-96206.4609375	29823.626953125	-2555.63134765625	0.5791431065351786	39.55346682219019	390.7784423828125	-300	450.0000000000007	0	110667.1782855215	32073.53218116599	251.8667602539062	-0	0	0	305	450.0000000000007	0	0	0	0
0.014	-0	0	0	-300	2252	0	0	0	0	-4.356598377227783	-37.05344009399414	379.9233093261719	-300	1351	0	-96266.65625	29850.44921875	-2477.86767578125	0.4435521919838932	39.63673402817739	391.0787048339844	-300	450.0000000000007	0	110672.0064029254	32247.31147825203	203.4248657226562	-0	0	0	305	450.0000000000007	0	0	0	0
0.0145	-0	0	0	-300	2252	0	0	0	0	-4.539592266082764	-37.0782470703125	379.257080078125	-300	1351	0	-96657.1875	30031.609375	-2640.097900390625	0.381974051780992	39.98999025107166	391.6413269042969	-300	450.0000000000007	0	110737.7642131603	32299.12984050139	199.3882598876953	-0	0	0	305	450.0000000000007	0	0	0	0
0.015	-0	0	0	-300	2252	0	0	0	0	-4.703310966491699	-36.82101821899414	379.7265319824219	-300	1351	0	-96646.5	29978.9609375	-2531.46875	0.4164122670248626	40.15934755238169	391.9904479980469	-300	450.0000000000007	0	110538.4673390252	32279.34272241485	217.5525970458984	-0	0	0	305	450.0000000000007	0	0	0	0
